<mxfile host="app.diagrams.net" agent="Mozilla/5.0 (Windows NT 10.0; Win64; x64) AppleWebKit/537.36 (KHTML, like Gecko) Chrome/129.0.0.0 Safari/537.36 Edg/129.0.0.0" version="24.7.14">
  <diagram name="Página-1" id="QsBlmo5zc3FLVjuJQzoX">
    <mxGraphModel dx="1426" dy="781" grid="1" gridSize="10" guides="1" tooltips="1" connect="1" arrows="1" fold="1" page="1" pageScale="1" pageWidth="827" pageHeight="1169" math="0" shadow="0">
      <root>
        <mxCell id="0" />
        <mxCell id="1" parent="0" />
        <mxCell id="IFKSleBwM63tv5aVSCFu-8" value="" style="edgeStyle=orthogonalEdgeStyle;rounded=0;orthogonalLoop=1;jettySize=auto;html=1;" edge="1" parent="1" source="IFKSleBwM63tv5aVSCFu-1" target="IFKSleBwM63tv5aVSCFu-2">
          <mxGeometry relative="1" as="geometry" />
        </mxCell>
        <mxCell id="IFKSleBwM63tv5aVSCFu-1" value="&lt;font style=&quot;font-size: 18px;&quot;&gt;Início&lt;/font&gt;" style="ellipse;whiteSpace=wrap;html=1;strokeWidth=2;" vertex="1" parent="1">
          <mxGeometry x="130" y="40" width="120" height="50" as="geometry" />
        </mxCell>
        <mxCell id="IFKSleBwM63tv5aVSCFu-9" value="" style="edgeStyle=orthogonalEdgeStyle;rounded=0;orthogonalLoop=1;jettySize=auto;html=1;" edge="1" parent="1" source="IFKSleBwM63tv5aVSCFu-2" target="IFKSleBwM63tv5aVSCFu-3">
          <mxGeometry relative="1" as="geometry" />
        </mxCell>
        <mxCell id="IFKSleBwM63tv5aVSCFu-2" value="&lt;font style=&quot;font-size: 18px;&quot;&gt;Aquisição de dados&lt;/font&gt;" style="rounded=1;whiteSpace=wrap;html=1;strokeWidth=2;" vertex="1" parent="1">
          <mxGeometry x="130" y="109" width="120" height="60" as="geometry" />
        </mxCell>
        <mxCell id="IFKSleBwM63tv5aVSCFu-11" value="" style="edgeStyle=orthogonalEdgeStyle;rounded=0;orthogonalLoop=1;jettySize=auto;html=1;" edge="1" parent="1" source="IFKSleBwM63tv5aVSCFu-3" target="IFKSleBwM63tv5aVSCFu-4">
          <mxGeometry relative="1" as="geometry" />
        </mxCell>
        <mxCell id="IFKSleBwM63tv5aVSCFu-18" style="edgeStyle=orthogonalEdgeStyle;rounded=0;orthogonalLoop=1;jettySize=auto;html=1;entryX=1;entryY=0.5;entryDx=0;entryDy=0;" edge="1" parent="1" source="IFKSleBwM63tv5aVSCFu-3" target="IFKSleBwM63tv5aVSCFu-2">
          <mxGeometry relative="1" as="geometry">
            <mxPoint x="330" y="220" as="targetPoint" />
            <Array as="points">
              <mxPoint x="300" y="230" />
              <mxPoint x="300" y="139" />
            </Array>
          </mxGeometry>
        </mxCell>
        <mxCell id="IFKSleBwM63tv5aVSCFu-3" value="&lt;font style=&quot;font-size: 18px;&quot;&gt;Detecção&amp;nbsp;&lt;/font&gt;&lt;div&gt;&lt;font style=&quot;font-size: 18px;&quot;&gt;de falta&lt;/font&gt;&lt;/div&gt;" style="rhombus;whiteSpace=wrap;html=1;strokeWidth=2;" vertex="1" parent="1">
          <mxGeometry x="95" y="190" width="190" height="80" as="geometry" />
        </mxCell>
        <mxCell id="IFKSleBwM63tv5aVSCFu-13" value="" style="edgeStyle=orthogonalEdgeStyle;rounded=0;orthogonalLoop=1;jettySize=auto;html=1;" edge="1" parent="1" source="IFKSleBwM63tv5aVSCFu-4" target="IFKSleBwM63tv5aVSCFu-5">
          <mxGeometry relative="1" as="geometry" />
        </mxCell>
        <mxCell id="IFKSleBwM63tv5aVSCFu-4" value="&lt;font style=&quot;font-size: 18px;&quot;&gt;Classificação da falta&lt;/font&gt;" style="rounded=1;whiteSpace=wrap;html=1;strokeWidth=2;" vertex="1" parent="1">
          <mxGeometry x="130" y="290" width="120" height="60" as="geometry" />
        </mxCell>
        <mxCell id="IFKSleBwM63tv5aVSCFu-14" value="" style="edgeStyle=orthogonalEdgeStyle;rounded=0;orthogonalLoop=1;jettySize=auto;html=1;" edge="1" parent="1" source="IFKSleBwM63tv5aVSCFu-5" target="IFKSleBwM63tv5aVSCFu-6">
          <mxGeometry relative="1" as="geometry" />
        </mxCell>
        <mxCell id="IFKSleBwM63tv5aVSCFu-5" value="&lt;font style=&quot;font-size: 18px;&quot;&gt;Localização da falta&lt;/font&gt;" style="rounded=1;whiteSpace=wrap;html=1;strokeWidth=2;" vertex="1" parent="1">
          <mxGeometry x="130" y="370" width="120" height="60" as="geometry" />
        </mxCell>
        <mxCell id="IFKSleBwM63tv5aVSCFu-15" value="" style="edgeStyle=orthogonalEdgeStyle;rounded=0;orthogonalLoop=1;jettySize=auto;html=1;" edge="1" parent="1" source="IFKSleBwM63tv5aVSCFu-6" target="IFKSleBwM63tv5aVSCFu-7">
          <mxGeometry relative="1" as="geometry" />
        </mxCell>
        <mxCell id="IFKSleBwM63tv5aVSCFu-6" value="&lt;font style=&quot;font-size: 18px;&quot;&gt;Identificação da zona&lt;/font&gt;" style="rounded=1;whiteSpace=wrap;html=1;strokeWidth=2;" vertex="1" parent="1">
          <mxGeometry x="130" y="450" width="120" height="60" as="geometry" />
        </mxCell>
        <mxCell id="IFKSleBwM63tv5aVSCFu-7" value="&lt;span style=&quot;font-size: 18px;&quot;&gt;Fim&lt;/span&gt;" style="ellipse;whiteSpace=wrap;html=1;strokeWidth=2;" vertex="1" parent="1">
          <mxGeometry x="130" y="530" width="120" height="50" as="geometry" />
        </mxCell>
      </root>
    </mxGraphModel>
  </diagram>
</mxfile>
